<?xml version="1.0" encoding="utf-8"?>
<!-- Generator: Adobe Illustrator 28.1.0, SVG Export Plug-In . SVG Version: 6.00 Build 0)  -->
<svg version="1.1" id="Layer_1" xmlns="http://www.w3.org/2000/svg" xmlns:xlink="http://www.w3.org/1999/xlink" x="0px" y="0px"
	 viewBox="0 0 210 136.7" style="enable-background:new 0 0 210 136.7;" xml:space="preserve">
<style type="text/css">
	.st0{fill:#76B900;}
</style>
<path class="st0" d="M78.3,40.6V28.1c1.2-0.1,2.5-0.2,3.7-0.2c34.3-1.1,56.8,29.5,56.8,29.5s-24.3,33.7-50.3,33.7
	c-3.5,0-6.9-0.5-10.1-1.6v-38c13.4,1.6,16.1,7.5,24,20.9l17.9-15c0,0-13.1-17.1-35-17.1C82.9,40.2,80.6,40.4,78.3,40.6 M78.3-0.8
	v18.7l3.7-0.2c47.7-1.6,78.8,39.1,78.8,39.1s-35.7,43.4-72.9,43.4c-3.2,0-6.4-0.3-9.6-0.9v11.6c2.6,0.3,5.3,0.5,8,0.5
	c34.6,0,59.7-17.7,83.9-38.6c4,3.2,20.5,11.1,23.9,14.5c-23,19.3-76.7,34.9-107.2,34.9c-2.9,0-5.7-0.2-8.5-0.5v16.3H210V-0.8H78.3z
	 M78.3,89.5v9.9c-32-5.7-40.9-39-40.9-39s15.4-17,40.9-19.8v10.8h-0.1c-13.4-1.6-23.9,10.9-23.9,10.9S60.3,83.4,78.3,89.5 M21.5,59
	c0,0,18.9-28,56.9-30.9V17.9c-42,3.4-78.4,39-78.4,39s20.6,59.5,78.3,64.9v-10.8C35.9,105.7,21.5,59,21.5,59z"/>
</svg>
