<?xml version="1.0" encoding="UTF-8"?>
<svg id="Layer_1" xmlns="http://www.w3.org/2000/svg" version="1.1" viewBox="0 0 24 24">
  <!-- Generator: Adobe Illustrator 29.0.1, SVG Export Plug-In . SVG Version: 2.1.0 Build 192)  -->
  <defs>
    <style>
      .st0 {
        fill: gray;
      }
    </style>
  </defs>
  <path class="st0" d="M8,12c3.3,0,6-2.7,6-6S11.3,0,8,0,2,2.7,2,6s2.7,6,6,6ZM8,2c2.2,0,4,1.8,4,4s-1.8,4-4,4-4-1.8-4-4,1.8-4,4-4ZM10,15.2c0,.5-.6.9-1.1.9-.3,0-.6,0-.9,0-3.3,0-6,2.7-6,6v1c0,.6-.4,1-1,1S0,23.6,0,23v-1C0,17.6,3.6,14,8,14s.8,0,1.1,0c.5,0,.9.6.9,1.1h0ZM20,14h-4v-1c0-1.1.9-2,2-2s1.1.2,1.5.7c.4.4,1,.4,1.4,0,.4-.4.4-1,0-1.4-.8-.8-1.8-1.3-3-1.3-2.2,0-4,1.8-4,4v1.5c-1.2.7-2,2-2,3.5v2c0,2.2,1.8,4,4,4h4c2.2,0,4-1.8,4-4v-2c0-2.2-1.8-4-4-4ZM22,20c0,1.1-.9,2-2,2h-4c-1.1,0-2-.9-2-2v-2c0-1.1.9-2,2-2h4c1.1,0,2,.9,2,2v2ZM19.5,19c0,.8-.7,1.5-1.5,1.5s-1.5-.7-1.5-1.5.7-1.5,1.5-1.5,1.5.7,1.5,1.5Z"/>
</svg>